<svg height="512" viewBox="0 0 64 64" width="512" xmlns="http://www.w3.org/2000/svg"><g id="flat"><path d="m48 18h-8v7.971c-4 .029-5 2.389-5 5.029v28a2 2 0 0 0 1.969 2h14.062a1.968 1.968 0 0 0 1.969-1.969v-28.031c0-2.64-1-5-5-5.029z" fill="#143441"/><path d="m42 3h4v4h-4z" fill="#7d8d9c"/><path d="m40 7h8v11h-8z" fill="#7d8d9c"/><path d="m35 36h18v15h-18z" fill="#cfdfe8"/><g fill="#f4f4e6"><path d="m43 11h2v4h-2z"/><path d="m38 56h2v2h-2z"/><path d="m39 40h10v7h-10z"/></g><path d="m40 7h8v4h-8z" fill="#cfdfe8"/><path d="m23 18h-6s-6 16-6 26v15a2.13 2.13 0 0 0 2 2h14a2.13 2.13 0 0 0 2-2v-15c0-10-6-26-6-26z" fill="#f1997e"/><path d="m11 44h18v11h-18z" fill="#ffd782"/><path d="m14 47h12v2h-12z" fill="#f4f4e6"/><path d="m24 39h2v2h-2z" fill="#f4f4e6"/><path d="m17 9h6v4h-6z" fill="#f9bb4b"/><path d="m17 13h6v5h-6z" fill="#dc6c54"/><path d="m20 3a3 3 0 0 1 3 3v3a0 0 0 0 1 0 0h-6a0 0 0 0 1 0 0v-3a3 3 0 0 1 3-3z" fill="#ad6327"/></g></svg>