<svg height="512" viewBox="0 0 64 64" width="512" xmlns="http://www.w3.org/2000/svg"><g id="Filled_outline" data-name="Filled outline"><path d="m17 52h14l2-16h-18z" fill="#17a5a3"/><path d="m24 36v3a2 2 0 0 1 -4 0v-3z" fill="#f4f4e6"/><path d="m40 3a2 2 0 0 1 2 2v34a0 0 0 0 1 0 0h-4a0 0 0 0 1 0 0v-34a2 2 0 0 1 2-2z" fill="#f9bb4b"/><path d="m35 39h10a4 4 0 0 1 4 4v4a0 0 0 0 1 0 0h-18a0 0 0 0 1 0 0v-4a4 4 0 0 1 4-4z" fill="#8ec13f"/><path d="m31 47h18v14h-18z" fill="#f9bb4b"/><path d="m38 17h4v6h-4z" fill="#ad6327"/><path d="m36 42h8v2h-8z"/><path d="m34 33a10 10 0 0 0 -20 0v3s0 .082.008.124l2 16a1 1 0 0 0 .992.876h13v8a1 1 0 0 0 1 1h18a1 1 0 0 0 1-1v-18a5.006 5.006 0 0 0 -5-5h-2v-33a3 3 0 0 0 -6 0v33h-2a4.927 4.927 0 0 0 -1.263.182l.255-2.059c.008-.042.008-.123.008-.123zm-18 2v-2a8 8 0 0 1 16 0v2zm7 2v2a1 1 0 0 1 -2 0v-2zm8.574 2.378a4.974 4.974 0 0 0 -1.574 3.622v8h-12.117l-1.75-14h2.867v2a3 3 0 0 0 6 0v-2h6.868zm16.426 20.622h-3v-5h-2v5h-2v-5h-2v5h-2v-5h-2v5h-3v-12h16zm-9-55a1 1 0 0 1 2 0v11h-2zm0 13h2v4h-2zm0 6h2v14h-2zm-4 16h10a3 3 0 0 1 3 3v3h-16v-3a3 3 0 0 1 3-3z"/></g></svg>