<?xml version="1.0" encoding="UTF-8" standalone="no"?>
<svg
   xmlns:dc="http://purl.org/dc/elements/1.1/"
   xmlns:cc="http://creativecommons.org/ns#"
   xmlns:rdf="http://www.w3.org/1999/02/22-rdf-syntax-ns#"
   xmlns:svg="http://www.w3.org/2000/svg"
   xmlns="http://www.w3.org/2000/svg"
   xmlns:sodipodi="http://sodipodi.sourceforge.net/DTD/sodipodi-0.dtd"
   xmlns:inkscape="http://www.inkscape.org/namespaces/inkscape"
   width="2500"
   height="741"
   viewBox="0 0 539.856 160"
   version="1.1"
   id="svg37"
   sodipodi:docname="download-2.svg"
   inkscape:version="0.92.3 (2405546, 2018-03-11)">
  <defs
     id="defs41" />
  <sodipodi:namedview
     pagecolor="#ffffff"
     bordercolor="#666666"
     borderopacity="1"
     objecttolerance="10"
     gridtolerance="10"
     guidetolerance="10"
     inkscape:pageopacity="0"
     inkscape:pageshadow="2"
     inkscape:window-width="1366"
     inkscape:window-height="711"
     id="namedview39"
     showgrid="false"
     inkscape:zoom="0.1504"
     inkscape:cx="1190.1596"
     inkscape:cy="430.34043"
     inkscape:window-x="0"
     inkscape:window-y="27"
     inkscape:window-maximized="1"
     inkscape:current-layer="g919" />
  <g
     transform="scale(4.00216 4.0011)"
     id="g33">
    <linearGradient
       id="a"
       gradientUnits="userSpaceOnUse"
       x1="-23.235"
       y1="97.431"
       x2="-23.235"
       y2="61.386"
       gradientTransform="matrix(4.0022 0 0 4.0011 191.95 -349.736)">
      <stop
         offset="0"
         stop-color="#1a1a1a"
         stop-opacity=".1"
         id="stop10" />
      <stop
         offset=".123"
         stop-color="#212121"
         stop-opacity=".151"
         id="stop12" />
      <stop
         offset=".308"
         stop-color="#353535"
         stop-opacity=".227"
         id="stop14" />
      <stop
         offset=".532"
         stop-color="#575757"
         stop-opacity=".318"
         id="stop16" />
      <stop
         offset=".783"
         stop-color="#858585"
         stop-opacity=".421"
         id="stop18" />
      <stop
         offset="1"
         stop-color="#b3b3b3"
         stop-opacity=".51"
         id="stop20" />
    </linearGradient>
    <g
       id="g31"
       transform="translate(-23.31895,-66.028055)"
       style="fill:#ffffff">
      <path
         d="m 45.211,13.491 c -0.593,0 -1.106,-0.029 -1.533,-0.078 V 6.979 a 11.606,11.606 0 0 1 1.805,-0.136 c 2.445,0 3.571,1.203 3.571,3.164 0,2.262 -1.33,3.484 -3.843,3.484 z m 0.358,-5.823 c -0.33,0 -0.611,0.02 -0.844,0.068 v 4.891 c 0.126,0.02 0.368,0.029 0.708,0.029 1.602,0 2.514,-0.912 2.514,-2.62 0,-1.523 -0.825,-2.368 -2.378,-2.368 z m 6.994,5.872 c -1.378,0 -2.271,-1.029 -2.271,-2.426 0,-1.456 0.912,-2.494 2.349,-2.494 1.358,0 2.271,0.98 2.271,2.417 0,1.474 -0.941,2.503 -2.349,2.503 z m 0.04,-4.154 c -0.757,0 -1.242,0.708 -1.242,1.698 0,0.971 0.495,1.679 1.232,1.679 0.737,0 1.232,-0.757 1.232,-1.699 0,-0.96 -0.485,-1.678 -1.222,-1.678 z M 62.77,8.717 61.295,13.433 H 60.334 L 59.723,11.385 A 15.53,15.53 0 0 1 59.344,9.862 h -0.02 c -0.077,0.514 -0.223,1.029 -0.378,1.523 l -0.65,2.048 H 57.325 L 55.937,8.717 h 1.077 l 0.534,2.242 c 0.126,0.534 0.232,1.038 0.32,1.514 h 0.02 c 0.077,-0.397 0.203,-0.893 0.388,-1.504 l 0.67,-2.251 H 59.8 l 0.641,2.203 c 0.155,0.534 0.281,1.058 0.379,1.553 h 0.028 c 0.068,-0.485 0.175,-1 0.32,-1.553 l 0.573,-2.203 z m 5.43,4.716 h -1.048 v -2.708 c 0,-0.834 -0.32,-1.252 -0.951,-1.252 -0.621,0 -1.048,0.534 -1.048,1.155 v 2.805 h -1.048 v -3.368 c 0,-0.417 -0.01,-0.864 -0.039,-1.349 h 0.922 l 0.049,0.728 h 0.029 C 65.348,8.94 65.92,8.62 66.561,8.62 c 0.99,0 1.64,0.757 1.64,1.989 z m 2.89,0 h -1.049 v -6.88 h 1.049 z m 3.821,0.107 c -1.377,0 -2.271,-1.029 -2.271,-2.426 0,-1.456 0.912,-2.494 2.348,-2.494 1.359,0 2.271,0.98 2.271,2.417 0.001,1.474 -0.941,2.503 -2.348,2.503 z M 74.95,9.386 c -0.757,0 -1.242,0.708 -1.242,1.698 0,0.971 0.496,1.679 1.231,1.679 0.738,0 1.232,-0.757 1.232,-1.699 10e-4,-0.96 -0.483,-1.678 -1.221,-1.678 z m 6.441,4.047 -0.076,-0.543 h -0.028 c -0.32,0.437 -0.787,0.65 -1.379,0.65 -0.845,0 -1.445,-0.592 -1.445,-1.388 0,-1.164 1.009,-1.766 2.756,-1.766 v -0.087 c 0,-0.621 -0.329,-0.932 -0.979,-0.932 -0.465,0 -0.873,0.117 -1.232,0.35 L 78.795,9.028 c 0.436,-0.272 0.98,-0.408 1.619,-0.408 1.232,0 1.854,0.65 1.854,1.951 v 1.737 c 0,0.476 0.021,0.845 0.068,1.126 z m -0.144,-2.349 c -1.164,0 -1.748,0.282 -1.748,0.951 0,0.495 0.301,0.737 0.719,0.737 0.533,0 1.029,-0.407 1.029,-0.96 z m 6.11,2.349 -0.049,-0.757 h -0.029 c -0.301,0.572 -0.807,0.864 -1.514,0.864 -1.137,0 -1.979,-1 -1.979,-2.407 0,-1.475 0.873,-2.514 2.065,-2.514 0.631,0 1.078,0.213 1.33,0.641 h 0.021 V 6.553 h 1.049 v 5.609 c 0,0.456 0.011,0.883 0.039,1.271 z m -0.155,-2.775 c 0,-0.66 -0.437,-1.223 -1.104,-1.223 -0.777,0 -1.252,0.689 -1.252,1.659 0,0.951 0.493,1.602 1.231,1.602 0.659,0 1.125,-0.573 1.125,-1.252 z m 7.7,2.882 c -1.377,0 -2.27,-1.029 -2.27,-2.426 0,-1.456 0.912,-2.494 2.348,-2.494 1.359,0 2.271,0.98 2.271,2.417 10e-4,1.474 -0.94,2.503 -2.349,2.503 z m 0.039,-4.154 c -0.756,0 -1.241,0.708 -1.241,1.698 0,0.971 0.495,1.679 1.231,1.679 0.738,0 1.232,-0.757 1.232,-1.699 0.002,-0.96 -0.483,-1.678 -1.222,-1.678 z m 7.946,4.047 h -1.049 v -2.708 c 0,-0.834 -0.32,-1.252 -0.951,-1.252 -0.621,0 -1.047,0.534 -1.047,1.155 v 2.805 h -1.049 v -3.368 c 0,-0.417 -0.01,-0.864 -0.039,-1.349 h 0.922 l 0.049,0.728 h 0.029 c 0.281,-0.504 0.854,-0.825 1.494,-0.825 0.99,0 1.641,0.757 1.641,1.989 z m 7.051,-3.93 h -1.153 v 2.29 c 0,0.583 0.202,0.874 0.61,0.874 0.185,0 0.34,-0.02 0.465,-0.049 l 0.029,0.796 c -0.203,0.078 -0.475,0.117 -0.813,0.117 -0.826,0 -1.32,-0.456 -1.32,-1.65 V 9.503 h -0.688 V 8.717 h 0.688 V 7.853 l 1.029,-0.311 v 1.174 h 1.153 z m 5.548,3.93 h -1.047 v -2.688 c 0,-0.844 -0.319,-1.271 -0.951,-1.271 -0.543,0 -1.049,0.369 -1.049,1.116 v 2.843 h -1.047 v -6.88 h 1.047 v 2.833 h 0.021 c 0.33,-0.514 0.808,-0.767 1.418,-0.767 0.998,0 1.608,0.776 1.608,2.009 z m 5.684,-2.106 h -3.145 c 0.02,0.893 0.611,1.397 1.486,1.397 0.465,0 0.893,-0.078 1.271,-0.223 l 0.163,0.728 c -0.446,0.194 -0.971,0.291 -1.582,0.291 -1.475,0 -2.348,-0.932 -2.348,-2.377 0,-1.446 0.894,-2.533 2.23,-2.533 1.205,0 1.961,0.893 1.961,2.242 a 2.02,2.02 0 0 1 -0.036,0.475 z m -0.961,-0.747 c 0,-0.728 -0.367,-1.242 -1.037,-1.242 -0.602,0 -1.078,0.524 -1.146,1.242 z"
         id="path29"
         inkscape:connector-curvature="0" />
    </g>
    <g
       id="g919"
       inkscape:export-xdpi="58.838699"
       inkscape:export-ydpi="58.838699">
      <path
         fill="#FFF"
         id="path2"
         d="M134.032 35.268a3.83 3.83 0 0 1-3.834 3.83H4.729a3.835 3.835 0 0 1-3.839-3.83V4.725A3.84 3.84 0 0 1 4.729.89h125.468a3.834 3.834 0 0 1 3.834 3.835l.001 30.543z" />
      <path
         fill="#A6A6A6"
         id="path4"
         d="M130.198 39.989H4.729A4.73 4.73 0 0 1 0 35.268V4.726A4.733 4.733 0 0 1 4.729 0h125.468a4.735 4.735 0 0 1 4.729 4.726v30.542c.002 2.604-2.123 4.721-4.728 4.721z" />
      <path
         id="path6"
         d="M134.032 35.268a3.83 3.83 0 0 1-3.834 3.83H4.729a3.835 3.835 0 0 1-3.839-3.83V4.725A3.84 3.84 0 0 1 4.729.89h125.468a3.834 3.834 0 0 1 3.834 3.835l.001 30.543z" />
      <path
         fill="#FFF"
         id="path8"
         d="M30.128 19.784c-.029-3.223 2.639-4.791 2.761-4.864-1.511-2.203-3.853-2.504-4.676-2.528-1.967-.207-3.875 1.177-4.877 1.177-1.022 0-2.565-1.157-4.228-1.123-2.14.033-4.142 1.272-5.24 3.196-2.266 3.923-.576 9.688 1.595 12.859 1.086 1.554 2.355 3.287 4.016 3.226 1.625-.066 2.232-1.035 4.193-1.035 1.943 0 2.513 1.035 4.207.996 1.744-.027 2.842-1.56 3.89-3.127 1.255-1.779 1.759-3.533 1.779-3.623-.04-.014-3.386-1.292-3.42-5.154zM26.928 10.306c.874-1.093 1.472-2.58 1.306-4.089-1.265.056-2.847.875-3.758 1.944-.806.942-1.526 2.486-1.34 3.938 1.421.106 2.88-.717 3.792-1.793z" />
      <path
         fill="url(#a)"
         id="path23"
         d="M130.198 0H62.993l26.323 39.989h40.882a4.733 4.733 0 0 0 4.729-4.724V4.726A4.734 4.734 0 0 0 130.198 0z" />
      <g
         fill="#FFF"
         id="g27">
        <path
           id="path25"
           d="M53.665 31.504h-2.271l-1.244-3.909h-4.324l-1.185 3.909H42.43l4.285-13.308h2.646l4.304 13.308zm-3.89-5.549L48.65 22.48c-.119-.355-.343-1.191-.671-2.507h-.04c-.132.566-.343 1.402-.632 2.507l-1.106 3.475h3.574zM64.663 26.588c0 1.632-.443 2.922-1.33 3.869-.794.843-1.781 1.264-2.958 1.264-1.271 0-2.185-.453-2.74-1.361v5.035h-2.132V25.062c0-1.025-.027-2.076-.079-3.154h1.875l.119 1.521h.04c.711-1.146 1.79-1.719 3.238-1.719 1.132 0 2.077.447 2.833 1.342.755.897 1.134 2.075 1.134 3.536zm-2.172.078c0-.934-.21-1.704-.632-2.311-.461-.631-1.08-.947-1.856-.947-.526 0-1.004.176-1.431.523-.428.35-.708.807-.839 1.373a2.784 2.784 0 0 0-.099.649v1.601c0 .697.214 1.286.642 1.768.428.48.984.721 1.668.721.803 0 1.428-.311 1.875-.928.448-.619.672-1.435.672-2.449zM75.7 26.588c0 1.632-.443 2.922-1.33 3.869-.795.843-1.781 1.264-2.959 1.264-1.271 0-2.185-.453-2.74-1.361v5.035h-2.132V25.062c0-1.025-.027-2.076-.079-3.154h1.875l.119 1.521h.04c.71-1.146 1.789-1.719 3.238-1.719 1.131 0 2.076.447 2.834 1.342.754.897 1.134 2.075 1.134 3.536zm-2.173.078c0-.934-.211-1.704-.633-2.311-.461-.631-1.078-.947-1.854-.947-.526 0-1.004.176-1.433.523-.428.35-.707.807-.838 1.373-.065.264-.1.479-.1.649v1.601c0 .697.215 1.286.641 1.768.428.479.984.721 1.67.721.804 0 1.429-.311 1.875-.928.448-.619.672-1.435.672-2.449zM88.04 27.771c0 1.133-.396 2.054-1.183 2.765-.866.776-2.075 1.165-3.625 1.165-1.432 0-2.58-.276-3.446-.829l.493-1.777c.935.554 1.962.83 3.08.83.804 0 1.429-.182 1.875-.543.447-.362.673-.846.673-1.45 0-.541-.187-.994-.554-1.363-.369-.368-.979-.711-1.836-1.026-2.33-.869-3.496-2.14-3.496-3.812 0-1.092.412-1.986 1.234-2.685.822-.698 1.912-1.047 3.268-1.047 1.211 0 2.22.211 3.021.632l-.535 1.738c-.754-.408-1.605-.612-2.557-.612-.752 0-1.342.185-1.764.553-.355.329-.535.73-.535 1.206 0 .525.205.961.613 1.303.354.315 1 .658 1.934 1.026 1.146.462 1.988 1 2.527 1.618.543.618.813 1.389.813 2.308zM95.107 23.508h-2.35v4.659c0 1.185.414 1.776 1.244 1.776.381 0 .697-.032.947-.099l.059 1.619c-.42.157-.973.236-1.658.236-.842 0-1.5-.257-1.975-.771-.473-.514-.711-1.375-.711-2.587v-4.837h-1.4v-1.6h1.4v-1.757l2.094-.632v2.389h2.35v1.604zM105.689 26.627c0 1.475-.422 2.686-1.264 3.633-.881.975-2.053 1.461-3.514 1.461-1.41 0-2.531-.467-3.367-1.4-.836-.935-1.254-2.113-1.254-3.534 0-1.487.432-2.705 1.293-3.652.863-.948 2.025-1.422 3.486-1.422 1.408 0 2.539.468 3.395 1.402.818.906 1.225 2.076 1.225 3.512zm-2.21.049c0-.879-.19-1.633-.571-2.264-.447-.762-1.087-1.143-1.916-1.143-.854 0-1.509.381-1.955 1.143-.382.631-.572 1.398-.572 2.304 0 .88.19 1.636.572 2.265.461.762 1.104 1.143 1.937 1.143.815 0 1.454-.389 1.916-1.162.392-.646.589-1.405.589-2.286zM112.622 23.783a3.71 3.71 0 0 0-.672-.059c-.75 0-1.33.282-1.738.85-.354.5-.532 1.132-.532 1.895v5.035h-2.132V24.93a67.43 67.43 0 0 0-.062-3.021h1.857l.078 1.836h.059c.226-.631.58-1.14 1.066-1.521a2.578 2.578 0 0 1 1.541-.514c.197 0 .375.014.533.039l.002 2.034zM122.157 26.252a5 5 0 0 1-.078.967h-6.396c.024.948.334 1.674.928 2.174.539.446 1.236.67 2.092.67.947 0 1.811-.15 2.588-.453l.334 1.479c-.908.396-1.98.593-3.217.593-1.488 0-2.656-.438-3.506-1.312-.848-.875-1.273-2.051-1.273-3.524 0-1.446.395-2.651 1.186-3.612.828-1.026 1.947-1.539 3.355-1.539 1.383 0 2.43.513 3.141 1.539.563.813.846 1.821.846 3.018zm-2.033-.553c.015-.633-.125-1.178-.414-1.639-.369-.594-.937-.89-1.698-.89-.697 0-1.265.289-1.697.869-.355.461-.566 1.015-.631 1.658l4.44.002z" />
      </g>
      <flowRoot
         xml:space="preserve"
         id="flowRoot878"
         style="font-style:normal;font-weight:normal;font-size:192px;line-height:1.25;font-family:sans-serif;letter-spacing:0px;word-spacing:0px;fill:#ffffff;fill-opacity:1;stroke:none"
         transform="matrix(0.05395646,0,0,0.05397076,9.0295145,0.77174527)"><flowRegion
           id="flowRegion880"
           style="font-size:192px;fill:#ffffff;fill-opacity:1"><rect
             id="rect882"
             width="1875"
             height="345.74469"
             x="638.29785"
             y="69.457443"
             style="font-size:192px;fill:#ffffff;fill-opacity:1" /></flowRegion><flowPara
           id="flowPara884"
           style="font-style:normal;font-variant:normal;font-weight:normal;font-stretch:normal;font-size:160.00001526px;line-height:1.25;font-family:Arial;-inkscape-font-specification:Arial;fill:#ffffff;fill-opacity:1">Download on the</flowPara></flowRoot>    </g>
  </g>
  <metadata
     id="metadata35">
    <rdf:RDF>
      <rdf:Description
         about="https://admin.iconscout.com/legal#licenses"
         dc:title="download-on-the-app-store-apple"
         dc:description="download-on-the-app-store-apple"
         dc:publisher="Iconscout"
         dc:date="2017-06-17"
         dc:format="image/svg+xml"
         dc:language="en">
        <dc:creator>
          <rdf:Bag>
            <rdf:li>Icon Mafia</rdf:li>
          </rdf:Bag>
        </dc:creator>
      </rdf:Description>
      <cc:Work
         rdf:about="">
        <dc:format>image/svg+xml</dc:format>
        <dc:type
           rdf:resource="http://purl.org/dc/dcmitype/StillImage" />
      </cc:Work>
    </rdf:RDF>
  </metadata>
</svg>
