<?xml version="1.0" encoding="UTF-8" standalone="no"?>
<svg
   xmlns:dc="http://purl.org/dc/elements/1.1/"
   xmlns:cc="http://creativecommons.org/ns#"
   xmlns:rdf="http://www.w3.org/1999/02/22-rdf-syntax-ns#"
   xmlns:svg="http://www.w3.org/2000/svg"
   xmlns="http://www.w3.org/2000/svg"
   xmlns:sodipodi="http://sodipodi.sourceforge.net/DTD/sodipodi-0.dtd"
   xmlns:inkscape="http://www.inkscape.org/namespaces/inkscape"
   id="Layer_1"
   viewBox="0 0 135 40"
   width="2500"
   height="741"
   version="1.1"
   sodipodi:docname="download-1.svg"
   inkscape:version="0.92.3 (2405546, 2018-03-11)">
  <defs
     id="defs71" />
  <sodipodi:namedview
     pagecolor="#ffffff"
     bordercolor="#666666"
     borderopacity="1"
     objecttolerance="10"
     gridtolerance="10"
     guidetolerance="10"
     inkscape:pageopacity="0"
     inkscape:pageshadow="2"
     inkscape:window-width="1366"
     inkscape:window-height="711"
     id="namedview69"
     showgrid="false"
     inkscape:zoom="0.1504"
     inkscape:cx="1250"
     inkscape:cy="370.5"
     inkscape:window-x="0"
     inkscape:window-y="27"
     inkscape:window-maximized="1"
     inkscape:current-layer="Layer_1" />
  <style
     id="style2">.st0{fill:#a6a6a6}.st1{fill:#fff}.st2{fill:url(#SVGID_1_)}.st3{fill:url(#SVGID_2_)}.st4{fill:url(#SVGID_3_)}.st5{fill:url(#SVGID_4_)}.st6,.st7,.st8{opacity:.2;enable-background:new}.st7,.st8{opacity:.12}.st8{opacity:.25;fill:#fff}.st9{fill:#fff;stroke:#fff;stroke-width:.2;stroke-miterlimit:10}</style>
  <path
     d="M130 40H5c-2.8 0-5-2.2-5-5V5c0-2.8 2.2-5 5-5h125c2.8 0 5 2.2 5 5v30c0 2.8-2.2 5-5 5z"
     id="path4" />
  <path
     class="st0"
     d="M130 .8c2.3 0 4.2 1.9 4.2 4.2v30c0 2.3-1.9 4.2-4.2 4.2H5C2.7 39.2.8 37.3.8 35V5C.8 2.7 2.7.8 5 .8h125m0-.8H5C2.2 0 0 2.3 0 5v30c0 2.8 2.2 5 5 5h125c2.8 0 5-2.2 5-5V5c0-2.7-2.2-5-5-5z"
     style="fill: #a6a6a6;"
     id="path6" />
  <path
     class="st1"
     d="M68.1 21.8c-2.4 0-4.3 1.8-4.3 4.3 0 2.4 1.9 4.3 4.3 4.3s4.3-1.8 4.3-4.3c0-2.6-1.9-4.3-4.3-4.3zm0 6.8c-1.3 0-2.4-1.1-2.4-2.6s1.1-2.6 2.4-2.6c1.3 0 2.4 1 2.4 2.6 0 1.5-1.1 2.6-2.4 2.6zm-9.3-6.8c-2.4 0-4.3 1.8-4.3 4.3 0 2.4 1.9 4.3 4.3 4.3s4.3-1.8 4.3-4.3c0-2.6-1.9-4.3-4.3-4.3zm0 6.8c-1.3 0-2.4-1.1-2.4-2.6s1.1-2.6 2.4-2.6c1.3 0 2.4 1 2.4 2.6 0 1.5-1.1 2.6-2.4 2.6zm-11.1-5.5v1.8H52c-.1 1-.5 1.8-1 2.3-.6.6-1.6 1.3-3.3 1.3-2.7 0-4.7-2.1-4.7-4.8s2.1-4.8 4.7-4.8c1.4 0 2.5.6 3.3 1.3l1.3-1.3c-1.1-1-2.5-1.8-4.5-1.8-3.6 0-6.7 3-6.7 6.6 0 3.6 3.1 6.6 6.7 6.6 2 0 3.4-.6 4.6-1.9 1.2-1.2 1.6-2.9 1.6-4.2 0-.4 0-.8-.1-1.1h-6.2zm45.4 1.4c-.4-1-1.4-2.7-3.6-2.7s-4 1.7-4 4.3c0 2.4 1.8 4.3 4.2 4.3 1.9 0 3.1-1.2 3.5-1.9l-1.4-1c-.5.7-1.1 1.2-2.1 1.2s-1.6-.4-2.1-1.3l5.7-2.4-.2-.5zm-5.8 1.4c0-1.6 1.3-2.5 2.2-2.5.7 0 1.4.4 1.6.9l-3.8 1.6zM82.6 30h1.9V17.5h-1.9V30zm-3-7.3c-.5-.5-1.3-1-2.3-1-2.1 0-4.1 1.9-4.1 4.3s1.9 4.2 4.1 4.2c1 0 1.8-.5 2.2-1h.1v.6c0 1.6-.9 2.5-2.3 2.5-1.1 0-1.9-.8-2.1-1.5l-1.6.7c.5 1.1 1.7 2.5 3.8 2.5 2.2 0 4-1.3 4-4.4V22h-1.8v.7zm-2.2 5.9c-1.3 0-2.4-1.1-2.4-2.6s1.1-2.6 2.4-2.6c1.3 0 2.3 1.1 2.3 2.6s-1 2.6-2.3 2.6zm24.4-11.1h-4.5V30h1.9v-4.7h2.6c2.1 0 4.1-1.5 4.1-3.9s-2-3.9-4.1-3.9zm.1 6h-2.7v-4.3h2.7c1.4 0 2.2 1.2 2.2 2.1-.1 1.1-.9 2.2-2.2 2.2zm11.5-1.8c-1.4 0-2.8.6-3.3 1.9l1.7.7c.4-.7 1-.9 1.7-.9 1 0 1.9.6 2 1.6v.1c-.3-.2-1.1-.5-1.9-.5-1.8 0-3.6 1-3.6 2.8 0 1.7 1.5 2.8 3.1 2.8 1.3 0 1.9-.6 2.4-1.2h.1v1h1.8v-4.8c-.2-2.2-1.9-3.5-4-3.5zm-.2 6.9c-.6 0-1.5-.3-1.5-1.1 0-1 1.1-1.3 2-1.3.8 0 1.2.2 1.7.4-.2 1.2-1.2 2-2.2 2zm10.5-6.6l-2.1 5.4h-.1l-2.2-5.4h-2l3.3 7.6-1.9 4.2h1.9l5.1-11.8h-2zm-16.8 8h1.9V17.5h-1.9V30z"
     style="fill: #fff;"
     id="path8" />
  <linearGradient
     id="SVGID_1_"
     gradientUnits="userSpaceOnUse"
     x1="21.8"
     y1="33.29"
     x2="5.017"
     y2="16.508"
     gradientTransform="matrix(1 0 0 -1 0 42)">
    <stop
       offset="0"
       stop-color="#00a0ff"
       id="stop10" />
    <stop
       offset=".007"
       stop-color="#00a1ff"
       id="stop12" />
    <stop
       offset=".26"
       stop-color="#00beff"
       id="stop14" />
    <stop
       offset=".512"
       stop-color="#00d2ff"
       id="stop16" />
    <stop
       offset=".76"
       stop-color="#00dfff"
       id="stop18" />
    <stop
       offset="1"
       stop-color="#00e3ff"
       id="stop20" />
  </linearGradient>
  <path
     class="st2"
     d="M10.4 7.5c-.3.3-.4.8-.4 1.4V31c0 .6.2 1.1.5 1.4l.1.1L23 20.1v-.2L10.4 7.5z"
     style="fill: url(#SVGID_1_);"
     id="path23" />
  <linearGradient
     id="SVGID_2_"
     gradientUnits="userSpaceOnUse"
     x1="33.834"
     y1="21.999"
     x2="9.637"
     y2="21.999"
     gradientTransform="matrix(1 0 0 -1 0 42)">
    <stop
       offset="0"
       stop-color="#ffe000"
       id="stop25" />
    <stop
       offset=".409"
       stop-color="#ffbd00"
       id="stop27" />
    <stop
       offset=".775"
       stop-color="orange"
       id="stop29" />
    <stop
       offset="1"
       stop-color="#ff9c00"
       id="stop31" />
  </linearGradient>
  <path
     class="st3"
     d="M27 24.3l-4.1-4.1V19.9l4.1-4.1.1.1 4.9 2.8c1.4.8 1.4 2.1 0 2.9l-5 2.7z"
     style="fill: url(#SVGID_2_);"
     id="path34" />
  <linearGradient
     id="SVGID_3_"
     gradientUnits="userSpaceOnUse"
     x1="24.827"
     y1="19.704"
     x2="2.069"
     y2="-3.054"
     gradientTransform="matrix(1 0 0 -1 0 42)">
    <stop
       offset="0"
       stop-color="#ff3a44"
       id="stop36" />
    <stop
       offset="1"
       stop-color="#c31162"
       id="stop38" />
  </linearGradient>
  <path
     class="st4"
     d="M27.1 24.2L22.9 20 10.4 32.5c.5.5 1.2.5 2.1.1l14.6-8.4"
     style="fill: url(#SVGID_3_);"
     id="path41" />
  <linearGradient
     id="SVGID_4_"
     gradientUnits="userSpaceOnUse"
     x1="7.297"
     y1="41.824"
     x2="17.46"
     y2="31.661"
     gradientTransform="matrix(1 0 0 -1 0 42)">
    <stop
       offset="0"
       stop-color="#32a071"
       id="stop43" />
    <stop
       offset=".069"
       stop-color="#2da771"
       id="stop45" />
    <stop
       offset=".476"
       stop-color="#15cf74"
       id="stop47" />
    <stop
       offset=".801"
       stop-color="#06e775"
       id="stop49" />
    <stop
       offset="1"
       stop-color="#00f076"
       id="stop51" />
  </linearGradient>
  <path
     class="st5"
     d="M27.1 15.8L12.5 7.5c-.9-.5-1.6-.4-2.1.1L22.9 20l4.2-4.2z"
     style="fill: url(#SVGID_4_);"
     id="path54" />
  <path
     class="st6"
     d="M27 24.1l-14.5 8.2c-.8.5-1.5.4-2 0l-.1.1.1.1c.5.4 1.2.5 2 0L27 24.1z"
     style="enable-background: new; opacity: .2;"
     id="path56" />
  <path
     class="st7"
     d="M10.4 32.3c-.3-.3-.4-.8-.4-1.4v.1c0 .6.2 1.1.5 1.4v-.1h-.1zM32 21.3l-5 2.8.1.1 4.9-2.8c.7-.4 1-.9 1-1.4 0 .5-.4.9-1 1.3z"
     style="enable-background: new; opacity: .12;"
     id="path58" />
  <path
     class="st8"
     d="M12.5 7.6L32 18.7c.6.4 1 .8 1 1.3 0-.5-.3-1-1-1.4L12.5 7.5c-1.4-.8-2.5-.2-2.5 1.4V9c0-1.5 1.1-2.2 2.5-1.4z"
     style="enable-background: new; opacity: .25; fill: #fff;"
     id="path60" />
  <g
     id="g64">
    <path
       class="st9"
       d="m 29.684043,-38.425 c -0.6,0.6 -1.3,0.9 -2.2,0.9 -0.9,0 -1.6,-0.3 -2.2,-0.9 -0.6,-0.6 -0.9,-1.3 -0.9,-2.2 0,-0.9 0.3,-1.6 0.9,-2.2 0.6,-0.6 1.3,-0.9 2.2,-0.9 0.9,0 1.6,0.3 2.2,0.9 0.6,0.6 0.9,1.3 0.9,2.2 0,0.9 -0.3,1.6 -0.9,2.2 z m -3.8,-0.5 c 0.4,0.4 1,0.7 1.6,0.7 0.6,0 1.2,-0.2 1.6,-0.7 0.4,-0.4 0.7,-1 0.7,-1.7 0,-0.7 -0.2,-1.3 -0.7,-1.7 -0.4,-0.4 -1,-0.7 -1.6,-0.7 -0.6,0 -1.2,0.2 -1.6,0.7 -0.4,0.4 -0.7,1 -0.7,1.7 0,0.7 0.2,1.3 0.7,1.7 z m 5.8,1.3 v -6 h 0.9 l 2.9,4.7 v -4.7 h 0.8 v 6 h -0.8 l -3,-4.9 v 4.9 z m 8,0 h -0.8 v -5.3 h -1.7 v -0.7 h 4.1 v 0.7 h -1.7 v 5.3 z m 2.7,0 v -6 h 1.8 c 0.9,0 1.7,0.3 2.2,0.8 0.6,0.6 0.8,1.3 0.8,2.2 0,0.9 -0.3,1.6 -0.8,2.2 -0.6,0.6 -1.3,0.8 -2.2,0.8 z m 0.7,-0.7 h 1.1 c 0.7,0 1.2,-0.2 1.6,-0.6 0.4,-0.4 0.6,-1 0.6,-1.7 0,-0.7 -0.2,-1.3 -0.6,-1.7 -0.4,-0.4 -1,-0.6 -1.6,-0.6 h -1.1 z m 8.7,-4.6 h -2.7 v 1.9 h 2.5 v 0.7 h -2.5 v 1.9 h 2.7 v 0.8 h -3.5 v -6 h 3.5 z m 5.7,-0.7 -2.2,2.6 2.4,3.4 h -0.9 l -2,-2.8 -0.9,1.1 v 1.7 h -0.8 v -6 h 0.8 v 3.1 l 2.6,-3.1 z m 2.9,6 v -6 h 0.8 v 2.6 h 3 v -2.6 h 0.8 v 6 h -0.8 v -2.7 h -3 v 2.7 z m 9.5,-5.3 h -2.7 v 1.9 h 2.5 v 0.7 h -2.5 v 1.9 h 2.7 v 0.8 h -3.5 v -6 h 3.5 z m 3.2,5.3 h -0.8 v -5.3 h -1.7 v -0.7 h 4.1 v 0.7 h -1.7 v 5.3 z m 9.5,-0.8 c -0.6,0.6 -1.3,0.9 -2.2,0.9 -0.9,0 -1.6,-0.3 -2.2,-0.9 -0.6,-0.6 -0.9,-1.3 -0.9,-2.2 0,-0.9 0.3,-1.6 0.9,-2.2 0.6,-0.6 1.3,-0.9 2.2,-0.9 0.9,0 1.6,0.3 2.2,0.9 0.6,0.6 0.9,1.3 0.9,2.2 0,0.9 -0.3,1.6 -0.9,2.2 z m -3.8,-0.5 c 0.4,0.4 1,0.7 1.6,0.7 0.6,0 1.2,-0.2 1.6,-0.7 0.4,-0.4 0.7,-1 0.7,-1.7 0,-0.7 -0.2,-1.3 -0.7,-1.7 -0.4,-0.4 -1,-0.7 -1.6,-0.7 -0.6,0 -1.2,0.2 -1.6,0.7 -0.4,0.4 -0.7,1 -0.7,1.7 0,0.7 0.2,1.3 0.7,1.7 z m 6.5,1.3 h -0.8 v -6 h 2 c 0.5,0 0.9,0.2 1.3,0.5 0.4,0.3 0.6,0.8 0.6,1.3 0,0.5 -0.2,0.9 -0.6,1.3 -0.4,0.3 -0.8,0.5 -1.3,0.5 h -1.3 v 2.4 z m 0,-3.2 h 1.3 c 0.3,0 0.6,-0.1 0.8,-0.3 0.2,-0.2 0.3,-0.5 0.3,-0.7 0,-0.2 -0.1,-0.5 -0.3,-0.7 -0.2,-0.2 -0.5,-0.3 -0.8,-0.3 h -1.3 z"
       style="fill:#ffffff;stroke:#ffffff;stroke-width:0.2;stroke-miterlimit:10"
       id="path62"
       inkscape:connector-curvature="0" />
  </g>
  <metadata
     id="metadata66">
    <rdf:RDF>
      <rdf:Description
         about="https://iconscout.com/legal#licenses"
         dc:title="google-play-badge-1"
         dc:description="google-play-badge-1"
         dc:publisher="Iconscout"
         dc:date="2017-06-06"
         dc:format="image/svg+xml"
         dc:language="en">
        <dc:creator>
          <rdf:Bag>
            <rdf:li>Icon Mafia</rdf:li>
          </rdf:Bag>
        </dc:creator>
      </rdf:Description>
      <cc:Work
         rdf:about="">
        <dc:format>image/svg+xml</dc:format>
        <dc:type
           rdf:resource="http://purl.org/dc/dcmitype/StillImage" />
      </cc:Work>
    </rdf:RDF>
  </metadata>
  <flowRoot
     xml:space="preserve"
     id="flowRoot878"
     style="font-style:normal;font-weight:normal;font-size:192px;line-height:1.25;font-family:sans-serif;letter-spacing:0px;word-spacing:0px;fill:#ffffff;fill-opacity:1;stroke:none"
     transform="matrix(0.054,0,0,0.054,6.1037234,-0.007)"><flowRegion
       id="flowRegion880"
       style="font-size:192px;fill:#ffffff;fill-opacity:1"><rect
         id="rect882"
         width="1875"
         height="345.74469"
         x="638.29785"
         y="69.457443"
         style="font-size:192px;fill:#ffffff;fill-opacity:1" /></flowRegion><flowPara
       id="flowPara884"
       style="font-size:192px;line-height:1.25;fill:#ffffff;fill-opacity:1;-inkscape-font-specification:Gubbi;font-family:Gubbi;font-weight:normal;font-style:normal;font-stretch:normal;font-variant:normal">GET IT ON</flowPara></flowRoot></svg>
